<svg width="75" height="75" viewBox="0 0 75 75" fill="none" xmlns="http://www.w3.org/2000/svg">
<path d="M18.2812 53.4375C20.9375 51.4062 23.9062 49.8047 27.1875 48.6328C30.4688 47.4609 33.9062 46.875 37.5 46.875C41.0938 46.875 44.5312 47.4609 47.8125 48.6328C51.0938 49.8047 54.0625 51.4062 56.7188 53.4375C58.5417 51.3021 59.9609 48.8802 60.9766 46.1719C61.9922 43.4635 62.5 40.5729 62.5 37.5C62.5 30.5729 60.0651 24.6745 55.1953 19.8047C50.3255 14.9349 44.4271 12.5 37.5 12.5C30.5729 12.5 24.6745 14.9349 19.8047 19.8047C14.9349 24.6745 12.5 30.5729 12.5 37.5C12.5 40.5729 13.0078 43.4635 14.0234 46.1719C15.0391 48.8802 16.4583 51.3021 18.2812 53.4375ZM37.5 40.625C34.4271 40.625 31.8359 39.5703 29.7266 37.4609C27.6172 35.3516 26.5625 32.7604 26.5625 29.6875C26.5625 26.6146 27.6172 24.0234 29.7266 21.9141C31.8359 19.8047 34.4271 18.75 37.5 18.75C40.5729 18.75 43.1641 19.8047 45.2734 21.9141C47.3828 24.0234 48.4375 26.6146 48.4375 29.6875C48.4375 32.7604 47.3828 35.3516 45.2734 37.4609C43.1641 39.5703 40.5729 40.625 37.5 40.625ZM37.5 68.75C33.1771 68.75 29.1146 67.9297 25.3125 66.2891C21.5104 64.6484 18.2031 62.4219 15.3906 59.6094C12.5781 56.7969 10.3516 53.4896 8.71094 49.6875C7.07031 45.8854 6.25 41.8229 6.25 37.5C6.25 33.1771 7.07031 29.1146 8.71094 25.3125C10.3516 21.5104 12.5781 18.2031 15.3906 15.3906C18.2031 12.5781 21.5104 10.3516 25.3125 8.71094C29.1146 7.07031 33.1771 6.25 37.5 6.25C41.8229 6.25 45.8854 7.07031 49.6875 8.71094C53.4896 10.3516 56.7969 12.5781 59.6094 15.3906C62.4219 18.2031 64.6484 21.5104 66.2891 25.3125C67.9297 29.1146 68.75 33.1771 68.75 37.5C68.75 41.8229 67.9297 45.8854 66.2891 49.6875C64.6484 53.4896 62.4219 56.7969 59.6094 59.6094C56.7969 62.4219 53.4896 64.6484 49.6875 66.2891C45.8854 67.9297 41.8229 68.75 37.5 68.75Z" fill="#9A9A9A"/>
</svg>
