<svg width="40" height="40" viewBox="0 0 40 40" fill="none" xmlns="http://www.w3.org/2000/svg">
<path d="M21.9533 5H15.0007C11.858 5 10.2866 5 9.3103 5.97631C8.33398 6.95262 8.33398 8.52397 8.33398 11.6667V28.3333C8.33398 31.476 8.33398 33.0474 9.3103 34.0237C10.2866 35 11.858 35 15.0007 35H25.0007C28.1433 35 29.7147 35 30.691 34.0237C31.6673 33.0474 31.6673 31.476 31.6673 28.3333V14.714C31.6673 14.0328 31.6673 13.6922 31.5405 13.3859C31.4136 13.0796 31.1727 12.8387 30.691 12.357L24.3103 5.97631C23.8286 5.49459 23.5877 5.25373 23.2814 5.12687C22.9751 5 22.6345 5 21.9533 5Z" stroke="#271F18" strokeWidth="2"/>
<path d="M15 21.6667L25 21.6667" stroke="#271F18" strokeWidth="2" strokeLinecap="round"/>
<path d="M15 28.3333L21.6667 28.3333" stroke="#271F18" strokeWidth="2" strokeLinecap="round"/>
<path d="M21.666 5V11.6667C21.666 13.238 21.666 14.0237 22.1542 14.5118C22.6423 15 23.428 15 24.9993 15H31.666" stroke="#271F18" strokeWidth="2"/>
</svg>
