<svg width="40" height="40" viewBox="0 0 40 40" fill="none" xmlns="http://www.w3.org/2000/svg">
<path d="M4.16602 8.16675C4.16602 5.95761 5.95688 4.16675 8.16602 4.16675H31.8327C34.0418 4.16675 35.8327 5.95761 35.8327 8.16675V31.8334C35.8327 34.0426 34.0418 35.8334 31.8327 35.8334H8.16601C5.95687 35.8334 4.16602 34.0426 4.16602 31.8334V8.16675Z" stroke="#222222" strokeWidth="2"/>
<path d="M4.16602 24.1664L10.8049 17.5277C11.6872 16.6454 13.1531 16.7776 13.8634 17.8035L18.7658 24.8844C19.4305 25.8445 20.7728 26.0333 21.6766 25.2939L27.7652 20.3125C28.5604 19.6619 29.7193 19.7197 30.4458 20.4462L35.8327 25.833" stroke="#222222" strokeWidth="2"/>
<circle cx="27.5" cy="12.5" r="2.5" fill="#222222"/>
</svg>
