<svg width="30" height="26" viewBox="0 0 30 26" fill="none" xmlns="http://www.w3.org/2000/svg">
<path d="M7.5 1H22.5C24.3001 1 25.5342 1.00256 26.4609 1.14648C27.2318 1.26625 27.6817 1.4693 28.0107 1.78223L28.1455 1.92383C28.5049 2.33921 28.742 2.93453 28.8691 4.02734C28.9981 5.13605 29 6.59969 29 8.66699V17.333C29 19.4003 28.9981 20.864 28.8691 21.9727C28.7579 22.9288 28.5623 23.504 28.2744 23.9111L28.1455 24.0762C27.8041 24.4707 27.3423 24.7166 26.4609 24.8535C25.5342 24.9974 24.3001 25 22.5 25H7.5C5.69994 25 4.46576 24.9974 3.53906 24.8535C2.76775 24.7337 2.31739 24.531 1.98828 24.2178L1.85449 24.0762C1.4951 23.6608 1.25801 23.0655 1.13086 21.9727C1.00186 20.864 1 19.4003 1 17.333V8.66699C1 6.59969 1.00186 5.13605 1.13086 4.02734C1.25801 2.93453 1.4951 2.33921 1.85449 1.92383C2.19594 1.52927 2.65766 1.28342 3.53906 1.14648C4.46576 1.00256 5.69994 1 7.5 1Z" stroke="#33363F" strokeWidth="2"/>
</svg>
