<svg width="30" height="30" viewBox="0 0 30 30" fill="none" xmlns="http://www.w3.org/2000/svg">
<path d="M7.27734 1H22.7227C24.0132 1 24.9193 1.00083 25.626 1.06055C26.2333 1.11187 26.6246 1.20246 26.9268 1.33691L27.0508 1.39746C27.6327 1.70389 28.1241 2.17241 28.4688 2.75293L28.6074 3.00781C28.7756 3.34892 28.8841 3.78735 28.9414 4.51172C28.9996 5.24681 29 6.18798 29 7.51953V15.7285C29 17.0599 28.9996 18.0006 28.9414 18.7354C28.8912 19.369 28.8012 19.7832 28.667 20.1055L28.6074 20.2383C28.3056 20.8502 27.8493 21.3573 27.2949 21.709L27.0508 21.8496C26.7316 22.0176 26.3199 22.1279 25.626 22.1865C24.9193 22.2462 24.0132 22.2471 22.7227 22.2471H8.12793C7.5345 22.2471 6.96729 22.4607 6.52051 22.8389L6.33691 23.0107L1 28.5244V7.51953L1.00781 5.79102C1.01528 5.29783 1.02953 4.87908 1.05859 4.51172C1.10878 3.87772 1.19875 3.46289 1.33301 3.14062L1.39258 3.00781C1.6941 2.39659 2.15032 1.88976 2.70508 1.53809L2.94922 1.39746C3.26839 1.22948 3.68012 1.11919 4.37402 1.06055C4.72728 1.0307 5.13046 1.0155 5.60645 1.00781L7.27734 1Z" stroke="#222222" strokeWidth="2" strokeLinecap="round" stroke-linejoin="round"/>
</svg>
