<svg width="40" height="40" viewBox="0 0 40 40" fill="none" xmlns="http://www.w3.org/2000/svg">
<path d="M25.001 9.91406C25.3611 9.91415 25.6532 10.0662 25.916 10.2666C26.1674 10.4584 26.4452 10.7372 26.7686 11.0605L28.9404 13.2324L29.3867 13.6855C29.5207 13.8266 29.6386 13.9584 29.7344 14.084C29.935 14.3469 30.0869 14.6396 30.0869 15C30.0869 15.3604 29.935 15.6531 29.7344 15.916C29.6386 16.0416 29.5207 16.1734 29.3867 16.3145L28.9404 16.7676L15.7461 29.9619C15.6142 30.0938 15.4964 30.2146 15.3652 30.3125L15.2285 30.4023C15.1331 30.4564 15.0326 30.4961 14.9258 30.5293L14.585 30.6191L9.26367 31.9492C9.09948 31.9903 8.921 32.0362 8.77246 32.0508C8.63704 32.064 8.41994 32.0637 8.22754 31.9229L8.14746 31.8535C7.9382 31.6443 7.93412 31.3833 7.94922 31.2285C7.96374 31.0801 8.00975 30.9014 8.05078 30.7373L9.38086 25.416L9.47168 25.0752C9.50488 24.9683 9.54459 24.8679 9.59863 24.7725L9.68848 24.6357C9.78634 24.5046 9.90717 24.3868 10.0391 24.2549L23.2324 11.0605L23.6855 10.6143C23.8268 10.4801 23.9592 10.3625 24.085 10.2666C24.3479 10.066 24.6406 9.91406 25.001 9.91406Z" stroke="#222222"/>
<path d="M20.834 12.5001L25.834 9.16675L30.834 14.1667L27.5007 19.1667L20.834 12.5001Z" fill="#222222"/>
</svg>
