<svg width="32" height="30" viewBox="0 0 32 30" fill="none" xmlns="http://www.w3.org/2000/svg">
<path d="M25.4891 19.225L30.4951 23.8974C31.1683 24.5256 31.1683 25.5443 30.4951 26.1726C26.8557 29.5694 21.0939 29.9516 16.9763 27.0693L13.9981 24.9846C10.7022 22.6774 7.77425 19.9447 5.30225 16.8684L3.06861 14.0888C-0.0195635 10.2457 0.389912 4.86804 4.02937 1.47122C4.70253 0.842928 5.79395 0.842927 6.46712 1.47122L11.4732 6.14353C12.2114 6.83256 12.2114 7.94971 11.4732 8.63874L9.54278 10.4404C9.23599 10.7268 9.15994 11.1642 9.35396 11.5264C11.5972 15.7138 15.2352 19.1092 19.7217 21.203C20.1098 21.3841 20.5785 21.3131 20.8852 21.0267L22.8156 19.225C23.5539 18.536 24.7508 18.536 25.4891 19.225Z" stroke="#33363F" strokeWidth="2"/>
</svg>
